<?xml version="1.0" encoding="UTF-8"?>
<svg id="Calque_1" xmlns="http://www.w3.org/2000/svg" version="1.1" xmlns:xlink="http://www.w3.org/1999/xlink" viewBox="0 0 460.55 505.23">
  <!-- Generator: Adobe Illustrator 30.2.1, SVG Export Plug-In . SVG Version: 2.1.1 Build 1)  -->
  <defs>
    <style>
      .st0 {
        font-size: 29.35px;
      }

      .st0, .st1, .st2, .st3, .st4, .st5, .st6, .st7, .st8, .st9, .st10, .st11, .st12, .st13, .st14, .st15, .st16, .st17, .st18, .st19, .st20, .st21, .st22, .st23, .st24 {
        font-family: GaramondPremrPro-Bd, 'Garamond Premier Pro';
      }

      .st1 {
        font-size: 21.8px;
      }

      .st2 {
        font-size: 21.8px;
      }

      .st25 {
        stroke-width: 10px;
      }

      .st25, .st26, .st27, .st28 {
        fill: none;
      }

      .st25, .st27, .st28 {
        stroke: #1d1d1b;
        stroke-miterlimit: 10;
      }

      .st3 {
        font-size: 29.35px;
      }

      .st4 {
        font-size: 21.8px;
      }

      .st5 {
        font-size: 68.77px;
      }

      .st29 {
        fill: #fff;
      }

      .st6 {
        font-size: 21.8px;
      }

      .st7 {
        font-size: 29.35px;
      }

      .st8 {
        font-size: 21.8px;
      }

      .st9 {
        font-size: 29.35px;
      }

      .st30 {
        clip-path: url(#clippath-1);
      }

      .st10 {
        font-size: 21.8px;
      }

      .st11 {
        font-size: 68.77px;
      }

      .st28 {
        stroke-width: 2px;
      }

      .st12 {
        font-size: 29.35px;
      }

      .st13 {
        font-size: 68.77px;
      }

      .st14 {
        font-size: 21.8px;
      }

      .st15 {
        font-size: 21.8px;
      }

      .st16 {
        font-size: 21.8px;
      }

      .st31 {
        fill: #1d1d1b;
      }

      .st17 {
        font-size: 29.35px;
      }

      .st18 {
        font-size: 68.77px;
      }

      .st19 {
        font-size: 21.8px;
      }

      .st32 {
        clip-path: url(#clippath-2);
      }

      .st20 {
        font-size: 68.77px;
      }

      .st21 {
        font-size: 21.8px;
      }

      .st22 {
        font-size: 29.35px;
      }

      .st33 {
        clip-path: url(#clippath);
      }

      .st23 {
        font-size: 21.8px;
      }

      .st24 {
        font-size: 29.35px;
      }
    </style>
    <clipPath id="clippath">
      <rect class="st26" width="460.55" height="505.23"/>
    </clipPath>
    <clipPath id="clippath-1">
      <rect class="st26" x="7.8" y="2.38" width="452.75" height="502.84"/>
    </clipPath>
    <clipPath id="clippath-2">
      <rect class="st26" width="460.55" height="505.23"/>
    </clipPath>
  </defs>
  <line class="st28" x1="141.16" y1="55.89" x2="141.16" y2="55.88"/>
  <line class="st28" x1="330.74" y1="55.58" x2="330.74" y2="55.57"/>
  <line class="st28" x1="331.29" y1="386.71" x2="331.29" y2="386.7"/>
  <line class="st28" x1="141.71" y1="387.02" x2="141.71" y2="387.01"/>
  <g class="st33">
    <path d="M424.64,220.63c-.05,25.39-5.14,50.6-14.99,73.99.88.03,1.77.06,2.65.09-14.59-6.16-29.19-12.33-43.78-18.49-2.06-.87-4.11-1.74-6.17-2.61.67.58,1.34,1.16,2.01,1.74,4.3-10.24,7.34-20.93,9.08-31.89.21-1.3-2.83-2.14-3.75-2.14h-114c-.46,0-.91.03-.91.57v113.69c0,1.24,3.26,2.01,4.18,1.86,16.7-2.6,32.8-8.25,47.47-16.65-1.44-.49-2.89-.98-4.33-1.47,7.89,13.73,15.79,27.47,23.68,41.2,1.11,1.93,2.22,3.87,3.34,5.81,0-.24,0-.49.01-.73-21.85,12.54-46.04,20.68-71.05,23.78-25.71,3.19-52.07,1.08-76.91-6.35-13.44-4.02-26.34-9.63-38.53-16.57.47.49.93.98,1.4,1.46,7.85-13.76,15.7-27.52,23.54-41.27,1.11-1.94,2.21-3.88,3.32-5.82-1.09-.12-2.17-.24-3.26-.36,14.94,8.49,31.35,14.22,48.31,16.9.51.08,1.43.2,1.43-.51v-113.65c0-1.13-2.95-1.89-3.75-1.89h-113.72c-.38,0-1,.03-.91.57.95,5.98,2.26,11.9,3.98,17.7.83,2.81,1.76,5.59,2.77,8.34.48,1.31.99,2.62,1.52,3.92.1.25.84,1.69.91,1.53-.17.4-2.22.94-2.6,1.1l-5.67,2.39c-10.91,4.61-21.82,9.22-32.73,13.83-2.96,1.25-5.92,2.5-8.88,3.75,1.5.59,2.99,1.17,4.49,1.76-15.45-36.73-19.08-77.95-10.17-116.8,2.47-10.77,5.89-21.3,10.18-31.48-.88-.03-1.77-.06-2.65-.09,14.59,6.17,29.19,12.33,43.78,18.5l6.17,2.61c-.67-.58-1.34-1.16-2.01-1.74-4.37,10.38-7.44,21.24-9.17,32.37-.2,1.3,2.83,2.14,3.74,2.14h113.8c.46,0,.91-.03.91-.57v-114.09c0-1.24-3.26-2.01-4.18-1.86-16.6,2.61-32.61,8.25-47.19,16.6,1.44.49,2.89.98,4.33,1.47-7.89-13.73-15.78-27.47-23.68-41.2-1.11-1.93-2.23-3.87-3.34-5.81,0,.24,0,.49-.01.73,21.85-12.54,46.04-20.68,71.05-23.78,25.72-3.19,52.08-1.08,76.91,6.35,13.44,4.02,26.34,9.63,38.53,16.57-.47-.49-.93-.98-1.4-1.46l-23.54,41.27-3.32,5.82c1.09.12,2.17.24,3.26.36-15.02-8.53-31.52-14.28-48.59-16.94-.52-.08-1.43-.2-1.43.51v114.14c0,1.13,2.95,1.89,3.75,1.89h114.07c.38,0,1-.03.91-.57-.92-5.94-2.21-11.83-3.9-17.6-.85-2.91-1.8-5.78-2.84-8.62-.48-1.31-.98-2.6-1.5-3.89-.19-.46-.42-1.61-.79-1.92-.6-.51.12-.08-.28.1,2.6-1.18,5.28-2.23,7.91-3.34,11.04-4.67,22.09-9.33,33.13-14,2.96-1.25,5.92-2.5,8.88-3.75-1.5-.59-2.99-1.17-4.49-1.76,9.91,23.5,14.96,48.79,15.01,74.29,0,1.23,4.66,2.72,4.66,1.32-.05-25.5-5.1-50.79-15.01-74.29-.54-1.28-3.23-2.29-4.49-1.76-14.59,6.17-29.19,12.33-43.78,18.5l-6.17,2.61c-.17.1-.23.25-.17.44,0,.92.97,2.36,1.31,3.22.51,1.29,1,2.6,1.47,3.91.98,2.74,1.88,5.52,2.68,8.32,1.6,5.56,2.82,11.21,3.71,16.93.3-.19.61-.38.91-.57h-114.07c1.25.63,2.5,1.26,3.75,1.89v-114.14c-.48.17-.96.34-1.43.51,15.84,2.47,31,7.78,44.94,15.7.53.3,2.76,1.24,3.26.36,7.85-13.76,15.7-27.52,23.54-41.27,1.11-1.94,2.21-3.88,3.32-5.82.32-.56-1.13-1.31-1.4-1.46-22.71-12.94-48.01-21.32-73.98-24.36-26.46-3.09-53.5-.84-79,6.93-13.83,4.22-27.15,9.99-39.69,17.19-.32.18-.14.5-.01.73l23.68,41.2c1.11,1.93,2.22,3.87,3.34,5.81.57.99,3.25,2.09,4.33,1.47,14.41-8.25,30.16-13.81,46.57-16.39-1.39-.62-2.78-1.24-4.18-1.86v114.09c.3-.19.61-.38.91-.57h-113.8c1.25.71,2.5,1.43,3.75,2.14,1.73-11.13,4.8-21.99,9.17-32.37.32-.77-1.63-1.57-2.01-1.73-14.59-6.17-29.19-12.34-43.78-18.5-2.06-.87-4.11-1.74-6.17-2.61-.47-.2-2.33-.85-2.65-.09-15.52,36.86-19.12,78.33-10.19,117.33,2.47,10.76,5.89,21.28,10.17,31.46.54,1.28,3.23,2.29,4.49,1.76,14.59-6.16,29.19-12.33,43.78-18.49,2.06-.87,4.11-1.74,6.17-2.61.17-.1.23-.25.17-.44-4.3-10.24-7.34-20.93-9.07-31.89-.3.19-.61.38-.91.57h113.72l-3.75-1.89v113.65c.48-.17.96-.34,1.43-.51-15.74-2.49-30.81-7.79-44.66-15.66-.53-.3-2.76-1.24-3.26-.36l-23.54,41.27c-1.11,1.94-2.21,3.88-3.32,5.82-.32.56,1.13,1.31,1.4,1.46,22.71,12.94,48.01,21.32,73.98,24.36,26.46,3.09,53.5.84,79-6.93,13.83-4.22,27.15-9.99,39.69-17.19.32-.18.14-.5.01-.73-7.89-13.73-15.78-27.47-23.68-41.2-1.11-1.93-2.23-3.87-3.34-5.81-.57-.99-3.25-2.09-4.33-1.47-14.49,8.3-30.34,13.87-46.85,16.44,1.39.62,2.79,1.24,4.18,1.86v-113.69c-.3.19-.61.38-.91.57h114l-3.75-2.14c-1.74,10.97-4.78,21.66-9.08,31.89-.32.77,1.63,1.57,2.01,1.74,14.59,6.16,29.19,12.33,43.78,18.49,2.06.87,4.11,1.74,6.17,2.61.47.2,2.33.85,2.65.09,9.93-23.58,14.95-48.92,15-74.5,0-1.23-4.66-2.72-4.66-1.32"/>
  </g>
  <text class="st18" transform="translate(82.69 427.09) rotate(31.37)"><tspan x="0" y="0">T</tspan></text>
  <text class="st20" transform="translate(131.79 455.67) rotate(18.75)"><tspan x="0" y="0">R</tspan></text>
  <text class="st11" transform="translate(185.16 472.97) rotate(5.19)"><tspan x="0" y="0">O</tspan></text>
  <text class="st5" transform="translate(249.59 477.42) rotate(-8.97)"><tspan x="0" y="0">U</tspan></text>
  <text class="st13" transform="translate(310.1 466.23) rotate(-21.63)"><tspan x="0" y="0">P</tspan></text>
  <text class="st5" transform="translate(356.49 446.89) rotate(-32.9)"><tspan x="0" y="0">E</tspan></text>
  <text class="st14" transform="translate(178.05 86.2) rotate(-18.52)"><tspan x="0" y="0">S</tspan></text>
  <text class="st4" transform="translate(189.19 82.55) rotate(-15.11)"><tspan x="0" y="0">t</tspan></text>
  <text class="st2" transform="translate(197.21 80.44) rotate(-12.79)"><tspan x="0" y="0"> </tspan></text>
  <text class="st8" transform="translate(202.01 79.09) rotate(-8.45)"><tspan x="0" y="0">M</tspan></text>
  <text class="st23" transform="translate(221.96 76.4) rotate(-3.42)"><tspan x="0" y="0">I</tspan></text>
  <text class="st6" transform="translate(231.25 75.75) rotate(.93)"><tspan x="0" y="0">C</tspan></text>
  <text class="st19" transform="translate(247.37 75.98) rotate(6.83)"><tspan x="0" y="0">H</tspan></text>
  <text class="st21" transform="translate(265.77 78.34) rotate(12.41)"><tspan x="0" y="0">E</tspan></text>
  <text class="st10" transform="translate(279.43 81.39) rotate(17.26)"><tspan x="0" y="0">L</tspan></text>
  <text class="st21" transform="translate(183.66 60.69) rotate(-15.61)"><tspan x="0" y="0">A</tspan></text>
  <text class="st1" transform="translate(198.79 56.52) rotate(-10.21)"><tspan x="0" y="0">R</tspan></text>
  <text class="st16" transform="translate(213.9 53.79) rotate(-4.51)"><tspan x="0" y="0">D</tspan></text>
  <text class="st6" transform="translate(231.26 52.53) rotate(.93)"><tspan x="0" y="0">E</tspan></text>
  <text class="st15" transform="translate(245.23 52.69) rotate(6.25)"><tspan x="0" y="0">N</tspan></text>
  <text class="st21" transform="translate(262.76 54.7) rotate(12.04)"><tspan x="0" y="0">T</tspan></text>
  <text class="st1" transform="translate(277.97 58.06) rotate(16.81)"><tspan x="0" y="0">S</tspan></text>
  <text class="st22" transform="translate(179.32 385.89) rotate(16.36)"><tspan x="0" y="0">3</tspan></text>
  <text class="st24" transform="translate(196.09 390.68) rotate(10.57)"><tspan x="0" y="0">5</tspan></text>
  <text class="st12" transform="translate(213.16 393.68) rotate(5.22)"><tspan x="0" y="0">e</tspan></text>
  <text class="st0" transform="translate(227.85 394.84) rotate(1.54)"><tspan x="0" y="0"> </tspan></text>
  <text class="st9" transform="translate(235.91 395.22) rotate(-3.18)"><tspan x="0" y="0">B</tspan></text>
  <text class="st17" transform="translate(256.99 393.69) rotate(-8.32)"><tspan x="0" y="0">.</tspan></text>
  <text class="st7" transform="translate(266.98 392.34) rotate(-13.33)"><tspan x="0" y="0">P</tspan></text>
  <text class="st3" transform="translate(284.49 387.98) rotate(-17.64)"><tspan x="0" y="0">.</tspan></text>
  <g class="st30">
    <path class="st31" d="M207.48,284.87c-2.06-.06-4.69-.19-7.73-.35-5.55-.28-12.47-.63-18.35-.63-.88,0-1.74,0-2.58.03-2.61,0-5.67.13-8.91.26-3.75.15-7.64.32-11.43.32-1.98,0-8.01,0-8.01-4.95,0-3.01,4.02-4.45,7.04-5.28,7.45-1.86,8.87-5.57,9.24-13.19.37-7.38.76-26.58.76-43.41,0-1.59,0-3.48.01-5.56.03-9.55.08-22.63-.39-29.01l-.04-.6c-.53-8.6-.66-10.64-8.23-12.62-3.6-1.01-7.25-2.46-7.25-5.67,0-2.87,4.22-4.37,8.4-4.37,2.96,0,6.84.18,10.94.38,4.08.19,8.29.39,11.47.39,5.05,0,9.7-.23,13.79-.43,3.53-.17,6.86-.34,9.96-.34,4.87,0,8.01,1.72,8.01,4.37,0,3.21-3.91,5.05-7.56,5.69-7.64,1.33-8.54,5.2-8.92,10.13l-.05.99c-.2,3.6-.52,9.63-.52,37.4s.18,35.74.57,41.47c.91,11.16,1.75,12.28,11.17,14.94,1.59.44,6.46,1.79,6.46,5.85,0,1.56-1.01,4.18-7.82,4.18h-.04Z"/>
    <path class="st29" d="M206.18,161.34c3.26,0,6.51.96,6.51,2.87,0,2.11-3.07,3.64-6.32,4.21-8.81,1.53-9.77,6.51-10.15,11.49-.19,3.83-.57,8.05-.57,38.51s.19,36.01.57,41.57c.96,11.69,2.11,13.41,12.26,16.28,3.45.96,5.36,2.3,5.36,4.41,0,2.3-4.02,2.68-6.32,2.68-5.93-.17-17.09-.98-26.12-.98-.89,0-1.77,0-2.61.02-5.56,0-13.22.58-20.31.58-4.98,0-6.51-1.34-6.51-3.45,0-1.34,1.72-2.68,5.94-3.83,8.43-2.11,9.96-6.71,10.34-14.56.38-7.66.77-27.2.77-43.49,0-8.81.19-26.82-.38-34.68-.57-9.2-.57-12.26-9.39-14.56-4.79-1.34-6.13-2.68-6.13-4.21s3.06-2.87,6.9-2.87c5.94,0,16.09.77,22.41.77,9.39,0,17.05-.77,23.76-.77M206.18,158.34c-3.15,0-6.49.17-10.04.34-4.08.2-8.7.43-13.72.43-3.14,0-7.34-.2-11.4-.39-4.12-.19-8.02-.38-11.01-.38-5.83,0-9.9,2.42-9.9,5.87,0,4.77,5.62,6.35,8.32,7.1h.02s.03.01.03.01c6.52,1.7,6.58,2.61,7.11,11.26l.04.59c.46,6.35.42,19.4.39,28.93,0,2.08-.01,3.97-.01,5.56,0,16.81-.4,35.98-.76,43.34-.36,7.43-1.58,10.17-8.08,11.8h-.03s-.03.02-.03.02c-2.23.61-8.15,2.22-8.15,6.73,0,2.94,1.65,6.45,9.51,6.45,3.82,0,7.72-.16,11.49-.32,3.23-.13,6.27-.26,8.82-.26h.06c.82-.02,1.68-.02,2.55-.02,5.84,0,12.74.35,18.28.63,3.05.15,5.68.29,7.76.35h.04s.04,0,.04,0c8.41,0,9.32-3.97,9.32-5.68,0-3.45-2.54-5.9-7.56-7.3-8.96-2.54-9.23-3.37-10.07-13.64-.39-5.65-.56-12.98-.56-41.33s.32-33.74.52-37.32l.05-.99c.36-4.67,1.07-7.59,7.67-8.73,5.44-.96,8.81-3.71,8.81-7.17s-3.74-5.87-9.51-5.87"/>
  </g>
  <rect class="st29" x="212.46" y="257.88" width="5.51" height="3.07"/>
  <rect class="st29" x="212.57" y="283.39" width="5.28" height="3.07"/>
  <rect class="st29" x="254.41" y="283.39" width="5.18" height="3.07"/>
  <rect class="st29" x="247.51" y="257.88" width="4.87" height="3.07"/>
  <rect class="st29" x="212.53" y="156.49" width="5.04" height="3.07"/>
  <rect class="st29" x="254.77" y="156.49" width="4.98" height="3.07"/>
  <rect class="st29" x="212.29" y="182" width="5.52" height="3.07"/>
  <g class="st32">
    <path class="st31" d="M282.04,273.8s0,0,0,0h0Z"/>
    <path class="st27" d="M282.04,273.8s0,0,0,0h0Z"/>
    <path class="st31" d="M282.05,273.77v.03s0-.01,0-.03"/>
    <path class="st27" d="M282.05,273.77v.03s0-.01,0-.03Z"/>
    <polyline class="st31" points="282.04 273.8 282.04 273.8 282.04 273.8"/>
    <path class="st27" d="M282.04,273.8h0s0,0,0,0Z"/>
    <path class="st31" d="M251.82,182.09c-1.75-5.2-2.07-6.14,3.22-8.39,3.73-1.41,4.4-3.65,4.31-5.28-.11-1.99-2.29-3.43-4.95-3.28-1.57.09-4.64.36-7.89.66-3.95.36-8.43.76-11.2.92-4.43.25-9.28.21-13.17.17-2.51-.02-4.5-.04-5.7.03-3,.17-5.25,2.08-5.12,4.35.17,3.12,3.3,3.83,5.13,4.24,6.52,1.7,8.21,4.35,11.74,12.06,2.66,6.15,5.59,12.8,8.68,19.85,6.58,14.95,13.39,30.41,17.45,40.8,4.71,11.78,8.16,21.45,9.11,24.6.09.35.32.94.65,1.6,2.63-8.92,6.18-20.95,10.97-37.17-3.97-7.7-20.78-47.49-23.25-55.15"/>
    <path class="st27" d="M251.82,182.09c-1.75-5.2-2.07-6.14,3.22-8.39,3.73-1.41,4.4-3.65,4.31-5.28-.11-1.99-2.29-3.43-4.95-3.28-1.57.09-4.64.36-7.89.66-3.95.36-8.43.76-11.2.92-4.43.25-9.28.21-13.17.17-2.51-.02-4.5-.04-5.7.03-3,.17-5.25,2.08-5.12,4.35.17,3.12,3.3,3.83,5.13,4.24,6.52,1.7,8.21,4.35,11.74,12.06,2.66,6.15,5.59,12.8,8.68,19.85,6.58,14.95,13.39,30.41,17.45,40.8,4.71,11.78,8.16,21.45,9.11,24.6.09.35.32.94.65,1.6,2.63-8.92,6.18-20.95,10.97-37.17-3.97-7.7-20.78-47.49-23.25-55.15Z"/>
    <path class="st31" d="M305.46,173.76c1.54,1.38,1.57,3.47-.32,8.05-4.44,10.64-22.7,46.89-26.11,53.02l-17.39,36.47c.95,1.75,2.81,4.02,5.46,4.06,2.89.05,6.21-3.56,7.06-5.55,4.65-11.23,9.54-22.14,13.09-29.22,9.68-20.23,21.91-41.98,27.13-51.27,1.22-2.16,2.08-3.7,2.48-4.44,1.72-3.1,3.28-5.48,4.92-7.34l-16.33-3.79Z"/>
    <path class="st25" d="M305.46,173.76c1.54,1.38,1.57,3.47-.32,8.05-4.44,10.64-22.7,46.89-26.11,53.02l-17.39,36.47c.95,1.75,2.81,4.02,5.46,4.06,2.89.05,6.21-3.56,7.06-5.55,4.65-11.23,9.54-22.14,13.09-29.22,9.68-20.23,21.91-41.98,27.13-51.27,1.22-2.16,2.08-3.7,2.48-4.44,1.72-3.1,3.28-5.48,4.92-7.34l-16.33-3.79Z"/>
    <rect class="st31" x="134.05" y="159.56" width="208.05" height="22.44"/>
    <rect class="st31" x="134.05" y="260.95" width="208.05" height="22.44"/>
    <rect class="st29" x="252.56" y="247.86" width="3.7" height="14.3" transform="translate(-74.58 108.3) rotate(-21.03)"/>
    <rect class="st29" x="256.81" y="181.77" width="3.07" height="22.61" transform="translate(-53.26 109.87) rotate(-21.82)"/>
    <rect class="st29" x="276.4" y="220.82" width="55.65" height="3.07" transform="translate(-33.58 389.34) rotate(-62.47)"/>
    <rect class="st29" x="284.67" y="199.65" width="8.11" height="3.07" transform="translate(-20.02 370.05) rotate(-63.55)"/>
    <rect class="st29" x="254.77" y="182.01" width=".77" height=".33"/>
    <rect class="st31" x="253" y="260.95" width="5.87" height="1.53"/>
    <rect class="st29" x="255.03" y="182.01" width="5.52" height="3.07"/>
  </g>
</svg>